<?xml version="1.0" standalone="no"?>
<!DOCTYPE svg PUBLIC "-//W3C//DTD SVG 20010904//EN"
 "http://www.w3.org/TR/2001/REC-SVG-20010904/DTD/svg10.dtd">
<svg version="1.0" xmlns="http://www.w3.org/2000/svg"
 width="1525.000000pt" height="445.000000pt" viewBox="0 0 1525.000000 445.000000"
 preserveAspectRatio="xMidYMid meet">

<g transform="translate(0.000000,445.000000) scale(0.100000,-0.100000)"
fill="#000000" stroke="none">
<path d="M1730 2605 l0 -1835 130 0 130 0 0 1835 0 1835 -130 0 -130 0 0
-1835z"/>
<path d="M2080 3525 l0 -915 409 0 c318 0 425 3 478 14 287 61 532 246 659
498 102 201 122 458 52 672 -86 265 -303 490 -568 586 -155 57 -184 60 -626
60 l-404 0 0 -915z"/>
<path d="M4090 3301 l0 -1141 488 0 c282 0 523 4 572 11 101 12 268 65 370
116 307 156 513 409 602 741 29 110 36 345 14 465 -86 455 -454 822 -926 923
-62 13 -169 17 -597 21 l-523 5 0 -1141z m995 429 c228 -33 401 -239 382 -458
-14 -173 -122 -311 -292 -374 -52 -19 -85 -23 -252 -26 l-193 -4 0 436 0 436
143 0 c78 0 174 -5 212 -10z"/>
<path d="M9880 3300 l0 -1140 330 0 330 0 0 344 0 344 308 4 c299 4 309 5 395
31 396 121 634 458 589 835 -21 182 -87 324 -206 449 -113 120 -240 195 -411
244 -79 23 -88 23 -707 27 l-628 3 0 -1141z m1054 576 c92 -39 149 -106 167
-197 22 -111 -40 -227 -149 -280 -42 -20 -65 -23 -224 -27 l-178 -4 0 267 0
268 173 -5 c131 -4 181 -9 211 -22z"/>
<path d="M6394 4266 c-17 -8 -40 -26 -52 -41 -20 -25 -22 -40 -22 -156 l0
-128 31 -35 c43 -50 98 -59 337 -54 290 5 302 13 302 221 0 139 -10 166 -76
193 -47 20 -475 19 -520 0z"/>
<path d="M9054 4266 c-17 -8 -40 -26 -52 -41 -20 -25 -22 -40 -22 -156 l0
-128 31 -35 c43 -50 98 -59 337 -54 290 5 302 13 302 221 0 137 -9 160 -70
192 -40 21 -479 21 -526 1z"/>
<path d="M12425 3830 c-130 -34 -205 -70 -305 -146 -157 -119 -265 -286 -311
-481 -30 -128 -24 -333 14 -448 175 -526 759 -752 1224 -474 78 47 196 160
255 244 l49 70 -338 6 c-282 5 -345 9 -383 23 -77 29 -105 68 -116 160 l-7 56
465 0 465 0 7 38 c10 65 6 235 -8 302 -68 320 -307 570 -620 650 -105 27 -291
27 -391 0z m368 -404 c67 -28 114 -95 124 -177 l6 -49 -207 0 -206 0 0 28 c0
76 59 169 125 198 39 17 117 17 158 0z"/>
<path d="M13570 3005 l0 -845 334 0 335 0 3 503 c3 555 3 552 68 591 36 21
142 24 183 5 63 -29 62 -13 67 -579 l5 -515 338 -3 337 -2 0 592 c0 644 -2
670 -56 785 -40 86 -151 193 -245 238 -152 71 -130 69 -781 73 l-588 3 0 -846z"/>
<path d="M7832 3779 c-196 -33 -387 -145 -498 -293 -103 -136 -152 -274 -161
-452 -12 -229 59 -420 216 -587 164 -174 358 -257 601 -257 111 0 110 1 90
-72 -14 -50 -67 -94 -130 -107 -29 -6 -158 -11 -305 -11 l-255 0 0 -271 0
-271 368 5 c400 4 414 6 550 68 135 61 274 186 351 316 46 78 85 189 100 283
7 42 11 352 11 863 l0 797 -442 -1 c-244 -1 -467 -5 -496 -10z m366 -751 l-3
-243 -120 1 c-108 1 -125 4 -171 27 -90 46 -134 116 -134 214 1 84 31 144 100
195 54 39 85 46 213 47 l117 1 -2 -242z"/>
<path d="M6320 2955 l0 -795 335 0 335 0 0 795 0 795 -335 0 -335 0 0 -795z"/>
<path d="M8980 2955 l0 -795 335 0 335 0 0 795 0 795 -335 0 -335 0 0 -795z"/>
<path d="M818 2599 c-99 -14 -180 -39 -275 -84 -115 -54 -167 -90 -260 -178
-261 -248 -349 -616 -228 -954 45 -127 112 -231 215 -334 99 -99 215 -174 337
-219 150 -54 215 -60 644 -60 l389 0 0 920 0 920 -382 -1 c-211 -1 -409 -5
-440 -10z"/>
<path d="M5045 1276 c-16 -7 -41 -26 -55 -41 -21 -22 -25 -37 -25 -85 0 -69
11 -84 105 -145 90 -59 105 -77 101 -127 -2 -37 -83 -53 -134 -27 -12 6 -35
23 -50 38 l-28 26 3 -55 c3 -54 4 -55 48 -77 81 -42 182 -23 221 41 12 20 19
50 19 83 0 47 -4 58 -37 94 -20 22 -53 49 -73 59 -64 33 -100 69 -100 101 0
54 89 68 154 24 l36 -24 0 48 c0 48 -1 49 -40 65 -49 19 -104 20 -145 2z"/>
<path d="M8583 1269 c-62 -24 -133 -98 -151 -157 -30 -98 -6 -201 61 -270 74
-75 184 -100 297 -66 67 20 150 99 168 160 29 99 9 192 -55 264 -77 85 -205
113 -320 69z m190 -73 c71 -29 126 -129 112 -199 -20 -92 -83 -148 -175 -155
-105 -8 -183 52 -205 155 -15 72 50 182 119 202 47 14 113 13 149 -3z"/>
<path d="M10799 1274 c-58 -17 -131 -81 -158 -137 -31 -65 -29 -167 5 -236 32
-63 97 -115 168 -132 60 -14 167 -7 224 16 40 17 42 19 42 61 0 24 -2 44 -5
44 -3 0 -25 -10 -48 -21 -58 -30 -154 -37 -212 -15 -151 58 -151 269 0 337 65
30 138 22 248 -26 15 -6 17 -1 17 34 0 46 -11 55 -95 77 -63 17 -127 17 -186
-2z"/>
<path d="M12606 1270 c-125 -49 -193 -191 -156 -325 19 -67 87 -139 156 -164
141 -53 308 8 365 134 23 51 25 161 4 213 -54 129 -229 197 -369 142z m216
-90 c59 -40 83 -85 83 -155 0 -50 -5 -69 -27 -102 -62 -95 -210 -112 -291 -35
-42 40 -58 78 -58 137 0 81 36 136 111 170 50 22 139 15 182 -15z"/>
<path d="M13724 1279 c-61 -18 -127 -71 -156 -128 -23 -44 -28 -66 -28 -126 0
-60 5 -82 28 -126 48 -94 151 -146 267 -136 183 14 296 178 240 348 -25 73
-94 142 -166 163 -57 17 -136 19 -185 5z m164 -84 c77 -33 112 -86 112 -170 0
-31 -6 -68 -14 -83 -32 -61 -102 -102 -173 -102 -120 1 -203 91 -190 206 13
123 147 198 265 149z"/>
<path d="M14399 1276 c-130 -46 -201 -157 -186 -286 23 -191 225 -282 440
-198 l27 10 0 115 0 114 -87 -3 -88 -3 -3 -37 -3 -38 50 0 51 0 0 -50 c0 -49
0 -49 -37 -57 -150 -30 -263 45 -263 176 0 85 43 154 113 180 48 19 137 13
200 -13 l57 -24 0 44 0 43 -66 21 c-75 23 -152 25 -205 6z"/>
<path d="M4100 1025 l0 -255 40 0 40 0 0 255 0 255 -40 0 -40 0 0 -255z"/>
<path d="M4350 1025 l0 -255 35 0 35 0 2 188 3 187 164 -187 c152 -175 166
-188 197 -188 l34 0 0 255 0 255 -35 0 -35 0 0 -185 c0 -102 -3 -185 -7 -185
-5 0 -80 83 -167 185 -147 171 -162 185 -193 185 l-33 0 0 -255z"/>
<path d="M5340 1245 l0 -35 85 0 85 0 0 -220 0 -220 45 0 45 0 0 220 0 220 85
0 85 0 0 35 0 35 -215 0 -215 0 0 -35z"/>
<path d="M5890 1025 l0 -255 45 0 45 0 0 255 0 255 -45 0 -45 0 0 -255z"/>
<path d="M6100 1245 l0 -35 85 0 85 0 0 -220 0 -220 40 0 40 0 0 220 0 220 90
0 90 0 0 35 0 35 -215 0 -215 0 0 -35z"/>
<path d="M6640 1095 c0 -135 4 -194 14 -218 66 -155 346 -155 412 0 10 24 14
83 14 218 l0 185 -40 0 -40 0 0 -170 c0 -194 -8 -228 -61 -255 -42 -22 -116
-22 -158 0 -53 27 -61 61 -61 255 l0 170 -40 0 -40 0 0 -185z"/>
<path d="M7190 1245 l0 -35 85 0 85 0 0 -220 0 -220 45 0 45 0 0 220 0 220 85
0 85 0 0 35 0 35 -215 0 -215 0 0 -35z"/>
<path d="M7740 1025 l0 -255 155 0 155 0 0 35 0 34 -112 3 -113 3 -3 73 -3 72
106 0 105 0 0 35 0 34 -102 3 -103 3 0 70 0 70 108 3 107 3 0 34 0 35 -150 0
-150 0 0 -255z"/>
<path d="M9110 1025 l0 -255 45 0 45 0 0 115 0 115 95 0 95 0 0 40 0 40 -95 0
-95 0 0 65 0 65 95 0 95 0 0 35 0 35 -140 0 -140 0 0 -255z"/>
<path d="M9650 1245 l0 -35 90 0 90 0 0 -220 0 -220 40 0 40 0 0 220 0 220 85
0 85 0 0 35 0 35 -215 0 -215 0 0 -35z"/>
<path d="M10200 1025 l0 -255 155 0 155 0 0 35 0 35 -110 0 -110 0 0 75 0 75
100 0 100 0 0 35 0 35 -100 0 -100 0 0 75 0 75 105 0 105 0 0 35 0 35 -150 0
-150 0 0 -255z"/>
<path d="M11220 1025 l0 -255 40 0 40 0 0 110 0 110 140 0 140 0 0 -110 0
-110 40 0 40 0 0 255 0 255 -40 0 -39 0 -3 -107 -3 -108 -135 0 -135 0 -3 108
-3 107 -39 0 -40 0 0 -255z"/>
<path d="M11820 1025 l0 -255 40 0 40 0 2 187 3 187 160 -184 c149 -172 163
-185 198 -188 l37 -3 0 255 0 256 -40 0 -40 0 -2 -185 -3 -186 -160 185 c-154
179 -161 186 -197 186 l-38 0 0 -255z"/>
<path d="M13130 1025 l0 -255 155 0 155 0 0 35 0 35 -110 0 -110 0 0 220 0
220 -45 0 -45 0 0 -255z"/>
<path d="M14831 1213 c29 -38 73 -92 96 -121 l43 -54 0 -134 0 -134 40 0 40 0
0 131 0 131 88 112 c117 147 112 136 54 136 l-49 0 -63 -80 c-35 -44 -67 -79
-71 -78 -4 2 -35 38 -68 81 l-61 77 -51 0 -51 0 53 -67z"/>
<path d="M6981 530 c-98 -21 -179 -97 -201 -192 -40 -166 69 -313 240 -326 80
-5 134 8 196 51 121 81 142 268 43 381 -62 71 -177 106 -278 86z m122 -81 c85
-23 146 -116 133 -203 -15 -95 -88 -156 -190 -156 -111 0 -186 72 -186 179 0
131 114 216 243 180z"/>
<path d="M4149 507 c-42 -28 -59 -60 -59 -114 0 -52 36 -97 119 -147 77 -47
93 -67 89 -107 -6 -69 -99 -75 -170 -11 l-38 34 0 -55 c0 -53 1 -55 38 -73
127 -60 252 -3 252 116 0 64 -28 103 -112 157 -40 25 -79 53 -85 61 -20 24
-15 59 9 76 32 23 76 19 126 -9 l42 -24 0 44 c0 39 -4 46 -30 60 -46 24 -140
20 -181 -8z"/>
<path d="M4502 273 l3 -258 40 0 40 0 0 255 0 255 -43 3 -42 3 2 -258z"/>
<path d="M4722 273 l3 -258 37 -3 38 -3 2 190 3 191 164 -190 c152 -175 167
-190 198 -190 l33 0 0 260 0 260 -40 0 -40 0 -2 -188 -3 -188 -163 188 c-153
176 -165 188 -198 188 l-34 0 2 -257z"/>
<path d="M5455 511 c-49 -22 -108 -81 -131 -130 -25 -51 -30 -140 -11 -195 37
-109 122 -167 252 -174 59 -2 96 1 140 15 l60 19 3 112 3 112 -91 0 -90 0 0
-35 0 -35 50 0 50 0 0 -49 0 -49 -51 -12 c-60 -15 -121 -7 -166 21 -123 76
-111 270 21 330 66 30 137 23 249 -26 16 -7 18 -3 15 36 -3 42 -4 43 -53 60
-69 25 -197 25 -250 0z"/>
<path d="M5937 277 c-59 -138 -107 -256 -107 -260 0 -5 19 -7 42 -5 l42 3 29
73 29 72 107 0 107 0 31 -73 c31 -71 31 -72 72 -75 23 -2 41 0 41 5 0 4 -50
122 -111 261 -112 251 -112 252 -143 252 -31 0 -31 -1 -139 -253z m176 -35
c-18 -2 -48 -2 -67 0 l-34 3 31 79 31 78 36 -78 36 -79 -33 -3z"/>
<path d="M6402 273 l3 -258 40 0 40 0 3 106 3 106 70 7 c39 3 84 13 100 22 68
35 91 138 46 205 -37 55 -76 69 -200 69 l-107 0 2 -257z m214 170 c22 -8 36
-57 25 -86 -13 -35 -40 -47 -100 -47 l-51 0 0 76 0 76 57 -7 c31 -4 62 -9 69
-12z"/>
<path d="M7415 518 c-3 -7 -4 -124 -3 -258 l3 -245 40 0 40 0 3 107 3 108 28
0 c38 0 68 -30 135 -134 l56 -86 45 0 c25 0 45 3 45 6 0 13 -127 199 -148 218
l-21 18 34 32 c43 41 53 91 31 151 -26 68 -68 89 -188 93 -77 3 -99 1 -103
-10z m198 -89 c43 -52 1 -119 -74 -119 l-39 0 0 76 0 77 48 -7 c30 -4 53 -13
65 -27z"/>
<path d="M7900 275 l0 -255 150 0 150 0 0 35 0 35 -110 0 -110 0 0 75 0 75
105 0 105 0 0 35 0 35 -105 0 -105 0 0 70 0 70 105 0 105 0 0 40 0 40 -145 0
-145 0 0 -255z"/>
</g>
</svg>
